<svg width="196" height="196" xmlns="http://www.w3.org/2000/svg" xmlns:xlink="http://www.w3.org/1999/xlink" xml:space="preserve" overflow="hidden"><defs><clipPath id="clip0"><rect x="148" y="394" width="196" height="196"/></clipPath></defs><g clip-path="url(#clip0)" transform="translate(-148 -394)"><path d="M231.525 463.417 196.816 463.417 196.816 487.917 231.525 487.917ZM227.441 483.833 200.9 483.833 200.9 467.5 227.441 467.5Z"/><path d="M239.691 536.917 274.4 536.917 274.4 512.417 239.691 512.417ZM243.775 516.5 270.316 516.5 270.316 532.833 243.775 532.833Z"/><path d="M196.816 449.125 274.4 449.125 274.4 453.208 196.816 453.208Z"/><path d="M196.816 498.125 274.4 498.125 274.4 502.208 196.816 502.208Z"/><path d="M239.691 465.458 274.4 465.458 274.4 469.542 239.691 469.542Z"/><path d="M239.691 481.792 274.4 481.792 274.4 485.875 239.691 485.875Z"/><path d="M196.816 514.458 231.525 514.458 231.525 518.542 196.816 518.542Z"/><path d="M196.816 530.792 231.525 530.792 231.525 534.875 196.816 534.875Z"/><path d="M290.733 438.917 290.733 426.667 180.483 426.667 180.483 545.083C180.492 552.973 186.885 559.366 194.775 559.375L298.9 559.375C305.662 559.367 311.142 553.887 311.15 547.125L311.15 438.917ZM184.566 545.083 184.566 430.75 286.65 430.75 286.65 547.125C286.65 550.143 287.771 553.053 289.794 555.292L194.775 555.292C189.139 555.285 184.573 550.719 184.566 545.083ZM307.066 547.125C307.066 551.635 303.41 555.292 298.9 555.292 294.389 555.292 290.733 551.635 290.733 547.125L290.733 443 307.066 443Z"/></g></svg>