<svg width="197" height="196" xmlns="http://www.w3.org/2000/svg" xmlns:xlink="http://www.w3.org/1999/xlink" xml:space="preserve" overflow="hidden"><defs><clipPath id="clip0"><rect x="424" y="394" width="197" height="196"/></clipPath></defs><g clip-path="url(#clip0)" transform="translate(-424 -394)"><path d="M16.3333 34.7083 16.3333 161.292 179.667 161.292 179.667 34.7083ZM175.583 38.7917 175.583 65.3333 20.4167 65.3333 20.4167 38.7917ZM20.4167 157.208 20.4167 69.4167 175.583 69.4167 175.583 157.208Z" transform="matrix(1.0051 0 0 1 424 394)"/><path d="M132.708 51.0417C132.708 53.2968 130.88 55.125 128.625 55.125 126.37 55.125 124.542 53.2968 124.542 51.0417 124.542 48.7865 126.37 46.9583 128.625 46.9583 130.88 46.9583 132.708 48.7865 132.708 51.0417Z" transform="matrix(1.0051 0 0 1 424 394)"/><path d="M147 51.0417C147 53.2968 145.172 55.125 142.917 55.125 140.662 55.125 138.833 53.2968 138.833 51.0417 138.833 48.7865 140.662 46.9583 142.917 46.9583 145.172 46.9583 147 48.7865 147 51.0417Z" transform="matrix(1.0051 0 0 1 424 394)"/><path d="M161.292 51.0417C161.292 53.2968 159.464 55.125 157.208 55.125 154.953 55.125 153.125 53.2968 153.125 51.0417 153.125 48.7865 154.953 46.9583 157.208 46.9583 159.464 46.9583 161.292 48.7865 161.292 51.0417Z" transform="matrix(1.0051 0 0 1 424 394)"/></g></svg>