<svg width="197" height="196" xmlns="http://www.w3.org/2000/svg" xmlns:xlink="http://www.w3.org/1999/xlink" xml:space="preserve" overflow="hidden"><defs><clipPath id="clip0"><rect x="698" y="408" width="197" height="196"/></clipPath></defs><g clip-path="url(#clip0)" transform="translate(-698 -408)"><path d="M114.333 65.3333 144.958 65.3333 144.958 69.4167 114.333 69.4167Z" transform="matrix(1.0051 0 0 1 698 408)"/><path d="M114.333 77.5833 144.958 77.5833 144.958 81.6667 114.333 81.6667Z" transform="matrix(1.0051 0 0 1 698 408)"/><path d="M114.333 89.8333 134.75 89.8333 134.75 93.9167 114.333 93.9167Z" transform="matrix(1.0051 0 0 1 698 408)"/><path d="M177.625 49 165.375 49 165.375 40.0167C165.375 39.1447 164.822 38.3686 163.997 38.0853 142.59 30.9394 119.454 30.8606 98 37.8607 76.5458 30.86 53.4098 30.938 32.0031 38.0832 31.1777 38.3668 30.6238 39.1439 30.625 40.0167L30.625 49 18.375 49C17.2474 49 16.3333 49.9141 16.3333 51.0417L16.3333 149.042C16.3333 150.169 17.2474 151.083 18.375 151.083L83.9125 151.083C84.769 154.675 87.9787 157.209 91.6708 157.208L104.329 157.208C108.021 157.209 111.231 154.675 112.088 151.083L177.625 151.083C178.753 151.083 179.667 150.169 179.667 149.042L179.667 51.0417C179.667 49.9141 178.753 49 177.625 49ZM161.292 41.4867 161.292 135.199C141.323 129.148 120.01 129.148 100.042 135.199L100.042 41.4867C119.97 35.171 141.363 35.171 161.292 41.4867ZM34.7083 41.4867C54.6366 35.171 76.03 35.171 95.9583 41.4867L95.9583 135.199C75.99 129.148 54.6767 129.148 34.7083 135.199ZM175.583 147 110.25 147C109.122 147 108.208 147.914 108.208 149.042L108.208 149.246C108.208 151.388 106.471 153.125 104.329 153.125L91.6708 153.125C89.5285 153.125 87.7917 151.388 87.7917 149.246L87.7917 149.042C87.7917 147.914 86.8776 147 85.75 147L20.4167 147 20.4167 53.0833 30.625 53.0833 30.625 138.017C30.6246 139.144 31.5384 140.059 32.6661 140.059 32.8921 140.059 33.1164 140.022 33.3302 139.948 54.1031 133.02 76.5635 133.02 97.3365 139.948 97.3702 139.956 97.4042 139.961 97.4385 139.964 97.5894 140.009 97.745 140.035 97.902 140.042 97.9347 140.042 97.9673 140.058 98 140.058 98.0327 140.058 98.051 140.048 98.0755 140.046 98.2309 140.041 98.3851 140.018 98.5349 139.977 98.5676 139.977 98.6023 139.964 98.637 139.954L98.6635 139.954C119.436 133.026 141.897 133.026 162.67 139.954 162.884 140.025 163.108 140.06 163.333 140.058 164.461 140.058 165.375 139.144 165.375 138.017L165.375 53.0833 175.583 53.0833Z" transform="matrix(1.0051 0 0 1 698 408)"/></g></svg>